<svg width="20" height="20" viewBox="0 0 20 20" fill="none" xmlns="http://www.w3.org/2000/svg">
<path d="M10 0.499512C4.475 0.499512 0 4.86119 0 10.2406C0 14.5453 2.865 18.1957 6.8375 19.4827C7.3375 19.5744 7.52083 19.2729 7.52083 19.0143C7.52083 18.783 7.5125 18.1701 7.50833 17.358C4.72667 17.9454 4.14 16.0512 4.14 16.0512C3.685 14.9269 3.0275 14.6262 3.0275 14.6262C2.12167 14.0224 3.0975 14.0347 3.0975 14.0347C4.10167 14.1025 4.62917 15.0384 4.62917 15.0384C5.52083 16.5278 6.97 16.0975 7.54167 15.8488C7.63167 15.2185 7.88917 14.7898 8.175 14.5461C5.95417 14.3024 3.62 13.4648 3.62 9.73255C3.62 8.66939 4.0075 7.80036 4.64917 7.11885C4.53667 6.87268 4.19917 5.88221 4.73667 4.54067C4.73667 4.54067 5.57417 4.27963 7.48667 5.53939C8.28667 5.32296 9.13667 5.21557 9.98667 5.21062C10.8367 5.21557 11.6867 5.32296 12.4867 5.53939C14.3867 4.27963 15.2242 4.54067 15.2242 4.54067C15.7617 5.88221 15.4242 6.87268 15.3242 7.11885C15.9617 7.80036 16.3492 8.66939 16.3492 9.73255C16.3492 13.4747 14.0117 14.2983 11.7867 14.5378C12.1367 14.8303 12.4617 15.4275 12.4617 16.3403C12.4617 17.6439 12.4492 18.6913 12.4492 19.0077C12.4492 19.263 12.6242 19.5678 13.1367 19.4703C17.1375 18.1916 20 14.5386 20 10.2406C20 4.86119 15.5225 0.499512 10 0.499512Z" fill="white"/>
</svg>
