<svg width="20" height="20" viewBox="0 0 20 20" fill="none" xmlns="http://www.w3.org/2000/svg">
<path d="M13.75 -0.00012207H6.25C2.79875 -0.00012207 0 2.79863 0 6.24988V13.7499C0 17.2011 2.79875 19.9999 6.25 19.9999H13.75C17.2013 19.9999 20 17.2011 20 13.7499V6.24988C20 2.79863 17.2013 -0.00012207 13.75 -0.00012207ZM18.125 13.7499C18.125 16.1624 16.1625 18.1249 13.75 18.1249H6.25C3.8375 18.1249 1.875 16.1624 1.875 13.7499V6.24988C1.875 3.83738 3.8375 1.87488 6.25 1.87488H13.75C16.1625 1.87488 18.125 3.83738 18.125 6.24988V13.7499Z" fill="white"/>
<path d="M10 4.99988C7.23875 4.99988 5 7.23863 5 9.99988C5 12.7611 7.23875 14.9999 10 14.9999C12.7613 14.9999 15 12.7611 15 9.99988C15 7.23863 12.7613 4.99988 10 4.99988ZM10 13.1249C8.2775 13.1249 6.875 11.7224 6.875 9.99988C6.875 8.27613 8.2775 6.87488 10 6.87488C11.7225 6.87488 13.125 8.27613 13.125 9.99988C13.125 11.7224 11.7225 13.1249 10 13.1249Z" fill="white"/>
<path d="M15.375 5.29111C15.7429 5.29111 16.0412 4.99282 16.0412 4.62487C16.0412 4.25691 15.7429 3.95862 15.375 3.95862C15.007 3.95862 14.7087 4.25691 14.7087 4.62487C14.7087 4.99282 15.007 5.29111 15.375 5.29111Z" fill="white"/>
</svg>
