<?xml version="1.0" standalone="no"?>
<!DOCTYPE svg PUBLIC "-//W3C//DTD SVG 20010904//EN"
 "http://www.w3.org/TR/2001/REC-SVG-20010904/DTD/svg10.dtd">
<svg version="1.0" xmlns="http://www.w3.org/2000/svg"
 width="50.000000pt" height="50.000000pt" viewBox="0 0 50.000000 50.000000"
 preserveAspectRatio="xMidYMid meet">

<g transform="translate(0.000000,50.000000) scale(0.100000,-0.100000)"
fill="#000000" stroke="none">
<path d="M185 394 c-69 -52 -115 -94 -115 -106 0 -4 11 -8 24 -8 54 0 56 -5
56 -116 l0 -104 106 0 107 0 -7 59 c-4 33 -4 83 0 110 l7 51 46 1 46 0 -30 24
c-108 87 -171 135 -175 135 -3 0 -32 -21 -65 -46z m93 7 c12 -11 22 -24 22
-31 0 -6 4 -9 9 -5 6 3 14 -2 19 -11 5 -9 12 -15 16 -15 3 1 18 -7 33 -16 l27
-18 -29 -5 -30 -5 -3 -107 c-3 -102 -4 -108 -25 -112 -35 -7 -67 -3 -67 8 0 6
-5 5 -12 -2 -14 -14 -42 -17 -34 -3 3 4 -6 6 -19 3 -15 -2 -25 0 -25 7 0 6 6
11 13 11 8 0 8 3 1 8 -14 9 -14 92 0 92 6 0 5 4 -2 9 -7 4 -12 12 -11 17 1 5
1 21 0 37 -1 23 -5 27 -31 27 -16 0 -30 2 -30 5 0 10 137 123 150 124 3 0 15
-8 28 -18z"/>
</g>
</svg>
